<?xml version="1.0" encoding="UTF-8" ?>
<!DOCTYPE svg PUBLIC "-//W3C//DTD SVG 1.1//EN" "http://www.w3.org/Graphics/SVG/1.1/DTD/svg11.dtd">
<svg width="500pt" height="500pt" viewBox="0 0 500 500" version="1.1" xmlns="http://www.w3.org/2000/svg">
<path fill="#fdfdfd" d=" M 0.00 0.00 L 500.00 0.00 L 500.00 500.00 L 0.00 500.00 L 0.00 0.00 Z" />
<path fill="#33393f" d=" M 262.52 125.79 C 281.66 123.81 302.32 126.11 318.44 137.39 C 333.95 148.03 344.11 164.55 351.76 181.37 C 359.31 198.36 364.76 216.21 369.21 234.24 C 373.81 252.66 375.87 271.95 373.21 290.84 C 370.46 307.40 361.38 322.76 348.33 333.30 C 330.14 348.27 307.70 356.61 285.45 363.49 C 263.28 370.02 240.29 375.66 216.99 373.87 C 199.28 372.95 181.89 365.10 169.88 351.99 C 155.87 337.20 147.52 318.16 140.76 299.20 C 135.23 283.35 130.66 267.15 127.70 250.62 C 125.02 233.59 123.88 215.72 129.07 199.03 C 133.68 183.39 144.78 170.38 157.97 161.13 C 175.53 148.79 196.02 141.65 216.32 135.25 C 231.44 130.93 246.80 127.10 262.52 125.79 Z" />
<path fill="#fdfdfd" d=" M 235.14 171.92 C 244.56 169.05 254.62 169.60 264.19 171.32 C 276.24 173.44 287.58 180.26 294.45 190.47 C 304.00 204.77 303.79 224.81 294.06 238.96 C 286.73 248.98 275.33 254.88 267.16 264.09 C 262.89 268.71 261.38 275.02 260.07 280.99 C 251.79 281.11 243.42 280.99 235.41 278.64 C 235.62 272.37 235.86 265.75 239.30 260.27 C 245.96 247.31 260.18 241.08 268.60 229.59 C 272.29 224.90 272.03 218.60 271.78 212.97 C 271.71 205.20 265.49 198.13 258.11 196.21 C 249.36 194.63 239.66 195.10 231.94 199.92 C 225.78 203.43 221.68 209.46 216.05 213.66 C 209.71 209.75 203.97 204.93 198.36 200.06 C 207.14 187.09 219.93 176.32 235.14 171.92 Z" />
<path fill="#fdfdfd" d=" M 242.50 298.78 C 251.59 294.65 263.50 302.00 263.72 311.97 C 264.93 322.51 253.63 332.36 243.34 329.47 C 237.44 327.09 232.35 321.75 231.84 315.19 C 230.86 307.97 236.37 301.70 242.50 298.78 Z" />
</svg>
