<?xml version="1.0" encoding="UTF-8" ?>
<!DOCTYPE svg PUBLIC "-//W3C//DTD SVG 1.1//EN" "http://www.w3.org/Graphics/SVG/1.1/DTD/svg11.dtd">
<svg width="500pt" height="500pt" viewBox="0 0 500 500" version="1.1" xmlns="http://www.w3.org/2000/svg">
<path fill="#ffffff" fill-opacity="0.0" d=" M 0.00 0.00 L 500.00 0.00 L 500.00 500.00 L 0.00 500.00 L 0.00 0.00 Z" />
<path fill="#e01765" d=" M 267.32 127.51 C 283.25 126.62 299.93 128.80 313.75 137.26 C 324.75 144.01 333.51 153.88 340.22 164.81 C 348.04 177.56 353.69 191.49 358.45 205.63 C 364.00 223.06 369.05 240.79 371.08 259.02 C 372.09 273.23 372.55 288.00 367.47 301.57 C 362.98 314.09 354.68 325.18 344.11 333.21 C 325.80 347.36 303.74 355.36 281.80 361.92 C 261.13 367.93 239.69 372.94 218.02 371.43 C 200.62 370.66 183.54 363.14 171.54 350.45 C 158.15 336.48 149.93 318.55 143.33 300.60 C 136.60 281.61 131.09 262.12 128.42 242.12 C 126.49 224.86 126.77 206.52 134.59 190.62 C 142.19 174.91 156.16 163.27 171.32 155.17 C 187.87 146.23 205.83 140.23 223.88 135.14 C 238.09 131.36 252.60 128.21 267.32 127.51 Z" />
<path fill="#ffffff" d=" M 232.99 173.85 C 242.13 170.76 252.02 170.59 261.45 172.33 C 273.94 173.84 285.69 180.70 292.95 191.00 C 302.25 204.59 302.46 223.72 293.73 237.63 C 286.60 248.43 274.45 254.31 266.14 264.02 C 262.28 268.46 260.75 274.32 259.69 279.97 C 251.49 279.95 243.01 280.60 235.16 277.70 C 235.74 271.23 235.97 264.34 239.81 258.80 C 246.61 246.55 260.29 240.60 268.26 229.34 C 271.74 224.24 271.38 217.82 271.03 211.96 C 269.93 204.29 263.52 197.77 255.85 196.58 C 248.16 195.55 239.88 196.17 232.99 200.02 C 226.50 203.45 222.12 209.56 216.50 214.12 C 210.15 210.41 204.58 205.52 199.04 200.72 C 207.30 188.65 219.01 178.56 232.99 173.85 Z" />
<path fill="#fdfdfd" d=" M 243.34 297.37 C 252.15 293.99 263.15 301.51 263.07 310.99 C 263.95 320.94 253.79 329.93 244.01 327.92 C 236.51 325.81 230.59 317.91 231.96 310.00 C 233.13 304.15 237.84 299.39 243.34 297.37 Z" />
</svg>
