<?xml version="1.0" encoding="UTF-8" ?>
<!DOCTYPE svg PUBLIC "-//W3C//DTD SVG 1.1//EN" "http://www.w3.org/Graphics/SVG/1.1/DTD/svg11.dtd">
<svg width="1600pt" height="625pt" viewBox="0 0 1600 625" version="1.1" xmlns="http://www.w3.org/2000/svg">
<path fill="#ffffff" d=" M 0.00 0.00 L 1600.00 0.00 L 1600.00 625.00 L 0.00 625.00 L 0.00 0.00 Z" />
<path fill="#e01765" d=" M 1319.51 121.99 C 1338.63 120.78 1358.47 122.78 1375.94 131.13 C 1392.14 138.96 1405.28 152.05 1415.24 166.86 C 1426.43 183.79 1434.54 202.56 1441.13 221.71 C 1448.25 243.02 1454.60 264.71 1458.08 286.95 C 1461.02 306.18 1461.89 326.05 1457.44 345.12 C 1452.94 363.63 1442.26 380.46 1427.82 392.83 C 1412.63 405.58 1394.89 414.93 1376.57 422.30 C 1359.77 428.96 1342.45 434.23 1325.00 438.86 C 1300.79 445.11 1275.65 449.65 1250.58 446.99 C 1232.24 445.05 1214.29 437.91 1200.27 425.81 C 1187.65 415.06 1178.08 401.19 1170.35 386.63 C 1160.19 367.09 1153.00 346.17 1146.73 325.11 C 1140.61 303.86 1135.73 282.10 1134.54 259.97 C 1133.68 240.67 1136.22 220.68 1145.40 203.42 C 1153.61 188.04 1166.43 175.54 1180.95 166.07 C 1198.77 154.41 1218.67 146.39 1238.78 139.61 C 1264.92 130.80 1291.93 124.01 1319.51 121.99 Z" />
<path fill="#3d434a" d=" M 312.34 148.53 C 318.42 146.94 324.78 147.69 331.00 147.53 C 336.49 147.79 342.48 146.79 347.49 149.61 C 351.01 151.76 350.62 156.45 350.75 160.02 C 350.73 240.99 350.77 321.97 350.67 402.94 C 351.03 408.16 345.70 411.51 340.98 411.37 C 332.33 411.41 323.67 411.50 315.03 411.29 C 310.68 411.26 305.73 407.86 306.26 403.07 C 306.23 321.36 306.16 239.65 306.22 157.94 C 305.87 153.83 307.91 149.29 312.34 148.53 Z" />
<path fill="#e01765" d=" M 906.78 149.64 C 912.39 146.73 918.92 147.65 925.00 147.52 C 931.49 147.70 938.40 146.61 944.48 149.47 C 947.38 151.19 947.77 154.91 947.74 157.97 C 947.77 204.57 947.67 251.18 948.23 297.77 C 972.20 274.56 996.34 251.53 1020.49 228.50 C 1023.56 225.68 1027.63 222.98 1032.01 223.88 C 1038.13 225.29 1043.36 228.97 1048.57 232.31 C 1052.90 235.40 1058.17 238.05 1060.53 243.09 C 1061.85 247.79 1057.32 250.71 1054.56 253.63 C 1038.43 269.83 1021.67 285.38 1005.48 301.52 C 1004.34 302.77 1001.98 304.39 1003.80 306.15 C 1024.61 333.05 1045.27 360.07 1066.03 387.02 C 1068.18 389.98 1070.94 393.24 1070.35 397.18 C 1067.68 402.10 1062.10 404.09 1057.21 406.06 C 1050.25 408.60 1043.32 411.55 1035.93 412.53 C 1031.78 413.24 1028.05 410.56 1025.60 407.48 C 1007.37 383.39 989.56 358.97 971.14 335.03 C 964.38 341.62 957.79 348.40 950.82 354.78 C 949.40 356.17 947.54 357.68 947.74 359.90 C 947.73 374.27 947.75 388.65 947.71 403.02 C 948.16 407.74 943.39 411.27 939.02 411.29 C 931.01 411.54 922.99 411.33 914.98 411.39 C 911.43 411.43 907.38 411.03 904.94 408.13 C 902.95 406.31 903.36 403.42 903.25 401.01 C 903.28 320.34 903.22 239.67 903.26 158.99 C 903.30 155.68 903.40 151.38 906.78 149.64 Z" />
<path fill="#ffffff" d=" M 1264.40 188.43 C 1274.73 183.08 1286.36 180.03 1298.05 180.52 C 1315.52 180.41 1333.83 184.94 1346.90 197.11 C 1367.68 215.26 1370.67 249.38 1354.48 271.42 C 1344.42 284.75 1328.79 292.40 1318.45 305.47 C 1314.04 311.15 1312.11 318.31 1311.08 325.31 C 1300.14 325.72 1288.96 325.72 1278.40 322.55 C 1278.42 313.37 1279.80 303.78 1285.00 295.99 C 1294.23 280.78 1311.14 272.75 1321.71 258.70 C 1326.66 251.92 1326.98 243.01 1326.06 234.97 C 1324.77 224.38 1315.78 215.34 1305.19 214.01 C 1294.94 213.10 1284.05 213.53 1274.95 218.88 C 1266.56 223.13 1261.29 231.30 1253.81 236.70 C 1251.24 237.22 1249.30 234.92 1247.33 233.69 C 1241.44 229.20 1235.60 224.65 1230.09 219.71 C 1238.71 206.68 1250.55 195.71 1264.40 188.43 Z" />
<path fill="#3d434a" d=" M 198.52 224.83 C 221.94 222.44 245.41 227.67 267.26 235.81 C 271.53 237.51 276.17 239.12 279.21 242.75 C 281.43 245.96 280.13 250.13 278.74 253.42 C 275.40 260.54 272.13 267.90 266.87 273.85 C 263.79 276.63 259.25 275.45 255.80 274.09 C 240.99 268.18 225.19 263.15 209.03 264.54 C 202.69 265.18 196.14 266.98 191.25 271.27 C 187.49 274.58 186.30 280.63 188.99 284.96 C 192.00 290.05 197.44 293.07 202.79 295.18 C 221.11 302.13 240.83 305.39 258.20 314.78 C 268.17 319.98 276.92 328.15 281.33 338.64 C 287.59 354.11 286.09 372.71 276.70 386.62 C 267.81 399.64 252.99 407.32 237.95 410.80 C 209.18 417.28 179.23 410.43 152.49 399.36 C 147.51 396.99 141.56 395.19 138.59 390.17 C 137.68 382.77 142.31 376.43 145.41 370.12 C 147.65 366.03 149.98 360.97 154.97 359.77 C 157.88 359.74 160.68 360.71 163.38 361.71 C 175.02 366.54 187.08 370.52 199.50 372.75 C 208.72 374.24 218.39 375.12 227.44 372.20 C 232.38 370.49 237.45 367.27 238.98 361.96 C 240.68 356.60 237.46 350.95 233.03 348.00 C 226.43 343.60 218.80 341.12 211.29 338.78 C 199.33 335.30 187.35 331.77 175.82 327.01 C 164.82 322.38 154.14 315.68 147.43 305.56 C 139.05 292.61 138.29 275.65 143.59 261.38 C 148.43 248.15 159.31 237.71 171.98 231.90 C 180.28 227.85 189.41 225.94 198.52 224.83 Z" />
<path fill="#3d434a" d=" M 387.63 242.62 C 411.92 227.40 441.73 221.16 470.07 225.65 C 486.64 228.05 503.04 235.01 514.57 247.43 C 526.37 259.82 531.84 277.12 532.34 293.98 C 532.75 329.34 532.39 364.70 532.51 400.06 C 532.62 403.61 531.60 407.57 528.54 409.71 C 526.10 411.56 522.89 411.34 520.00 411.41 C 512.34 411.37 504.68 411.47 497.03 411.37 C 492.81 411.51 488.78 408.23 488.10 404.06 C 487.12 399.71 488.32 395.30 488.36 390.92 C 479.34 399.83 468.30 406.87 456.09 410.45 C 445.08 413.59 433.43 414.28 422.14 412.34 C 407.59 410.24 393.11 403.93 383.55 392.44 C 371.98 378.34 368.75 358.26 374.20 340.98 C 378.24 327.46 388.29 316.23 400.55 309.50 C 413.74 302.16 429.05 299.46 444.01 299.37 C 458.79 299.15 473.53 301.94 487.42 306.93 C 487.50 297.84 488.53 287.80 483.13 279.87 C 476.16 269.43 462.98 265.47 451.00 265.13 C 435.80 264.33 420.88 269.36 407.84 276.87 C 404.66 278.50 400.73 280.70 397.21 278.74 C 393.50 276.54 391.11 272.79 388.67 269.35 C 385.04 263.97 381.10 258.50 379.69 252.04 C 379.65 247.43 384.23 244.84 387.63 242.62 Z" />
<path fill="#e01765" d=" M 568.72 242.73 C 585.31 232.30 604.49 226.13 623.99 224.51 C 643.02 223.41 662.92 225.62 679.84 234.97 C 698.57 244.88 711.36 264.95 712.73 286.05 C 712.84 325.36 712.77 364.68 712.78 403.99 C 713.32 408.32 708.92 411.41 704.96 411.30 C 696.32 411.47 687.67 411.39 679.03 411.40 C 674.94 411.58 670.50 409.04 669.62 404.85 C 669.06 400.23 669.59 395.56 669.39 390.91 C 655.75 405.40 635.89 413.67 616.02 413.44 C 601.55 412.96 586.57 409.88 574.59 401.34 C 551.16 385.43 546.39 349.97 562.17 327.12 C 570.49 314.80 583.99 306.81 598.13 302.92 C 621.28 296.75 646.19 298.72 668.60 306.90 C 668.59 300.78 669.10 294.60 668.09 288.54 C 666.02 278.53 657.52 270.86 648.01 267.89 C 631.20 262.40 612.56 265.25 596.89 272.92 C 592.18 274.89 588.03 278.17 583.03 279.38 C 578.77 280.35 575.45 276.83 573.16 273.76 C 569.38 268.47 565.44 263.22 562.73 257.29 C 561.61 254.67 560.40 251.58 561.75 248.82 C 563.28 246.04 566.13 244.39 568.72 242.73 Z" />
<path fill="#e01765" d=" M 795.46 224.68 C 817.78 222.72 840.22 227.25 861.10 234.98 C 865.67 236.79 870.65 238.19 874.39 241.55 C 877.78 244.78 876.47 249.94 874.75 253.69 C 871.56 260.58 868.35 267.62 863.42 273.47 C 860.71 276.50 856.10 275.70 852.74 274.38 C 838.79 268.91 824.16 263.92 808.98 264.35 C 801.77 264.44 794.24 266.04 788.40 270.47 C 784.27 273.51 782.24 279.54 784.77 284.21 C 787.66 289.72 793.39 292.98 798.97 295.22 C 818.16 302.45 838.96 305.67 856.83 316.16 C 868.03 322.51 877.12 333.25 879.84 346.02 C 883.54 361.12 880.18 377.99 870.28 390.08 C 860.32 402.21 845.17 408.86 830.02 411.67 C 805.54 416.14 780.41 411.13 757.31 402.83 C 750.28 400.13 743.03 397.58 736.95 393.02 C 734.05 391.05 733.98 386.99 735.07 383.99 C 737.33 377.68 740.44 371.70 743.93 365.99 C 745.59 363.33 747.66 360.47 750.92 359.74 C 756.75 359.82 761.91 362.90 767.28 364.78 C 781.66 369.90 796.65 374.29 812.04 374.17 C 819.55 373.65 827.96 372.19 832.98 366.00 C 837.32 361.13 835.71 353.05 830.72 349.27 C 822.80 343.18 812.96 340.53 803.57 337.64 C 787.82 332.79 771.50 328.55 757.58 319.38 C 748.88 313.65 741.72 305.25 738.68 295.17 C 733.36 278.48 737.27 259.04 748.97 245.94 C 760.65 232.65 778.24 226.36 795.46 224.68 Z" />
<path fill="#ffffff" d=" M 444.19 332.16 C 458.72 329.87 473.38 333.01 487.33 337.01 C 487.28 342.80 488.49 348.93 486.42 354.48 C 478.53 367.07 464.58 375.16 450.09 377.59 C 441.13 379.23 431.30 378.56 423.43 373.63 C 419.21 371.17 416.33 366.79 415.19 362.10 C 413.29 355.28 416.02 347.80 420.92 342.91 C 426.92 336.44 435.68 333.49 444.19 332.16 Z" />
<path fill="#ffffff" d=" M 606.92 338.89 C 615.75 333.12 626.57 331.29 636.96 331.44 C 647.76 331.37 658.29 334.12 668.57 337.17 C 668.42 342.76 669.42 348.57 668.03 354.03 C 661.65 365.06 650.09 372.33 638.12 375.99 C 628.75 378.83 618.36 379.57 609.10 375.89 C 602.15 373.30 596.42 366.68 596.21 359.08 C 595.36 350.95 600.28 343.20 606.92 338.89 Z" />
<path fill="#ffffff" d=" M 1289.40 348.46 C 1301.02 344.20 1314.78 353.84 1315.53 366.02 C 1316.83 379.06 1304.02 391.38 1291.05 389.50 C 1280.39 387.18 1271.83 375.96 1274.02 364.98 C 1275.78 357.26 1282.00 351.01 1289.40 348.46 Z" />
</svg>
