<?xml version="1.0" encoding="UTF-8" ?>
<!DOCTYPE svg PUBLIC "-//W3C//DTD SVG 1.1//EN" "http://www.w3.org/Graphics/SVG/1.1/DTD/svg11.dtd">
<svg width="2013pt" height="497pt" viewBox="0 0 2013 497" version="1.1" xmlns="http://www.w3.org/2000/svg">
<path fill="#ffffff" d=" M 0.00 0.00 L 2013.00 0.00 L 2013.00 497.00 L 0.00 497.00 L 0.00 0.00 Z" />
<path fill="#e01765" d=" M 1795.03 1.08 C 1806.02 0.67 1817.07 1.55 1828.03 0.61 C 1848.78 2.22 1869.69 6.90 1888.18 16.82 C 1903.56 25.00 1917.05 36.44 1928.55 49.47 C 1940.92 63.36 1950.66 79.34 1959.20 95.81 C 1968.95 114.70 1976.85 134.50 1983.66 154.62 C 1997.55 196.57 2009.59 239.68 2012.18 283.98 C 2012.26 291.62 2011.41 299.35 2012.47 306.97 C 2011.48 316.33 2011.03 325.81 2008.98 335.05 C 2002.03 370.98 1979.49 402.92 1949.48 423.48 C 1916.84 446.89 1878.99 461.62 1840.87 473.44 C 1806.34 483.94 1771.16 493.20 1735.09 496.24 C 1721.67 495.63 1708.16 496.35 1694.71 495.80 C 1676.00 494.18 1657.57 488.87 1640.97 480.05 C 1623.10 470.89 1607.86 457.19 1595.38 441.57 C 1570.20 409.98 1555.07 371.90 1542.38 333.93 C 1531.08 299.13 1521.66 263.51 1517.74 227.05 C 1515.07 202.01 1515.52 176.30 1522.25 151.89 C 1527.02 134.14 1535.62 117.48 1547.22 103.23 C 1568.82 76.24 1599.42 58.42 1630.55 44.48 C 1651.23 35.43 1672.58 28.05 1694.13 21.38 C 1726.98 11.41 1760.68 3.36 1795.03 1.08 Z" />
<path fill="#e01765" d=" M 1169.78 42.83 C 1178.16 38.48 1187.90 39.72 1196.99 39.53 C 1205.97 39.78 1215.20 38.57 1223.94 41.28 C 1226.69 42.00 1229.44 43.59 1230.59 46.33 C 1232.27 50.32 1232.33 54.76 1232.29 59.03 C 1232.28 128.59 1232.28 198.14 1232.71 267.70 C 1234.20 267.47 1235.12 266.14 1236.21 265.21 C 1271.67 230.97 1307.21 196.80 1342.96 162.86 C 1347.68 158.41 1354.17 154.36 1360.93 156.04 C 1369.72 158.16 1377.26 163.40 1384.79 168.18 C 1390.83 172.34 1397.47 176.04 1401.95 182.01 C 1403.40 184.10 1404.85 186.71 1404.05 189.32 C 1402.53 194.77 1397.57 198.04 1393.91 201.99 C 1372.25 223.63 1349.95 244.63 1328.10 266.08 C 1324.29 270.09 1319.90 273.59 1316.60 278.04 C 1316.61 278.53 1316.61 279.53 1316.61 280.02 C 1346.76 319.33 1377.02 358.55 1407.17 397.85 C 1410.83 402.84 1415.11 407.50 1417.74 413.17 C 1418.89 415.97 1419.60 419.75 1417.24 422.13 C 1412.44 428.26 1404.84 430.98 1397.84 433.73 C 1387.11 437.59 1376.44 442.18 1365.01 443.41 C 1358.87 443.73 1353.68 439.50 1350.14 434.90 C 1327.04 404.25 1304.29 373.34 1281.11 342.75 C 1276.43 337.03 1272.56 330.59 1267.36 325.33 C 1259.92 333.20 1252.06 340.67 1244.29 348.22 C 1240.36 352.48 1234.68 355.69 1232.41 361.16 C 1232.05 384.12 1232.44 407.11 1232.19 430.07 C 1231.70 436.65 1225.23 441.21 1218.98 441.36 C 1206.32 441.67 1193.66 441.46 1181.00 441.50 C 1176.05 441.55 1170.69 440.52 1167.18 436.75 C 1164.18 434.05 1164.48 429.67 1164.44 426.00 C 1164.45 302.67 1164.43 179.33 1164.47 56.00 C 1164.49 51.27 1165.05 45.25 1169.78 42.83 Z" />
<path fill="#40464d" d=" M 266.49 40.78 C 276.54 38.71 286.85 39.84 297.03 39.62 C 304.39 39.78 312.47 38.89 319.01 43.01 C 323.51 46.05 323.51 52.08 323.60 56.94 C 323.67 180.96 323.57 304.99 323.52 429.01 C 323.84 436.20 316.59 441.21 309.99 441.43 C 296.68 441.62 283.37 441.64 270.06 441.41 C 265.31 441.40 260.44 439.36 257.63 435.45 C 255.11 431.78 255.82 427.15 255.75 422.96 C 255.72 302.32 255.70 181.67 255.73 61.03 C 255.73 55.97 255.13 50.45 258.05 45.99 C 259.79 42.95 263.12 41.25 266.49 40.78 Z" />
<path fill="#ffffff" d=" M 1736.80 93.08 C 1748.55 89.91 1760.84 89.17 1772.95 90.04 C 1795.66 90.99 1818.96 97.57 1836.55 112.46 C 1848.11 121.73 1856.89 134.33 1861.77 148.31 C 1870.09 172.12 1868.33 199.70 1855.48 221.60 C 1841.30 245.68 1814.50 257.85 1797.14 279.14 C 1789.84 287.83 1786.89 299.13 1785.07 310.09 C 1768.63 311.40 1751.58 310.79 1735.53 306.27 C 1735.08 294.75 1736.92 282.99 1741.65 272.42 C 1747.79 259.75 1757.66 249.32 1768.34 240.32 C 1776.63 232.97 1785.43 226.15 1793.17 218.18 C 1797.69 213.46 1802.32 208.59 1804.89 202.47 C 1808.79 193.45 1809.02 183.33 1808.02 173.70 C 1806.80 162.32 1799.95 151.79 1790.19 145.88 C 1783.61 141.72 1775.70 140.17 1768.01 140.41 C 1756.73 139.98 1745.15 141.07 1734.79 145.82 C 1729.33 148.42 1724.07 151.52 1719.54 155.53 C 1712.27 162.02 1705.85 169.48 1698.01 175.30 C 1694.90 176.15 1692.27 173.77 1689.89 172.18 C 1680.45 165.02 1671.03 157.78 1662.26 149.80 C 1662.96 146.62 1665.74 144.28 1667.48 141.58 C 1684.83 118.87 1708.96 100.53 1736.80 93.08 Z" />
<path fill="#e01765" d=" M 999.67 157.12 C 1033.63 154.15 1067.84 160.76 1099.64 172.54 C 1106.98 175.41 1114.95 177.64 1120.86 183.13 C 1125.34 187.89 1123.73 195.17 1121.37 200.56 C 1116.45 211.19 1111.59 222.07 1104.03 231.13 C 1102.11 233.55 1098.97 234.63 1095.96 234.57 C 1090.30 234.56 1085.23 231.75 1080.01 229.93 C 1064.58 224.08 1048.59 219.26 1032.08 217.84 C 1018.08 216.81 1002.90 217.73 990.97 225.92 C 985.00 229.65 981.37 237.05 982.71 244.05 C 984.33 250.03 988.87 254.69 993.75 258.25 C 1003.53 264.95 1015.24 267.76 1026.36 271.40 C 1052.32 279.33 1079.59 285.81 1102.03 301.83 C 1114.80 311.49 1125.01 325.16 1128.58 340.96 C 1135.07 366.08 1128.57 394.60 1110.39 413.40 C 1094.52 429.88 1072.31 438.68 1050.10 442.46 C 1024.43 446.57 998.07 444.06 972.96 437.77 C 956.71 433.79 940.82 428.36 925.48 421.69 C 920.40 419.25 915.31 416.65 910.93 413.07 C 906.97 410.06 906.90 404.36 908.41 400.04 C 911.63 390.90 916.12 382.25 921.05 373.91 C 923.58 369.79 926.36 365.10 931.12 363.34 C 938.62 362.09 945.62 365.92 952.42 368.51 C 968.45 374.63 984.89 379.90 1001.83 382.80 C 1015.02 385.00 1028.85 386.06 1041.84 382.14 C 1048.70 380.23 1055.28 376.23 1059.12 370.09 C 1062.76 364.01 1061.62 356.00 1057.52 350.44 C 1054.85 347.03 1051.13 344.67 1047.46 342.48 C 1038.45 337.12 1028.36 334.03 1018.44 330.89 C 1000.90 325.47 983.15 320.60 966.15 313.63 C 951.35 307.32 936.72 299.24 926.25 286.73 C 916.31 275.20 911.24 260.10 910.52 245.02 C 909.69 226.71 915.14 207.97 926.43 193.44 C 935.31 181.82 947.48 172.96 960.82 167.10 C 973.12 161.72 986.33 158.57 999.67 157.12 Z" />
<path fill="#40464d" d=" M 96.12 156.98 C 131.56 154.22 166.92 162.62 199.81 175.31 C 205.54 177.62 211.66 180.28 215.31 185.53 C 218.27 191.29 215.44 197.82 212.95 203.20 C 208.23 213.29 203.39 223.56 195.97 231.99 C 191.44 236.08 184.69 234.55 179.56 232.55 C 162.22 225.70 144.35 219.48 125.65 217.92 C 111.41 216.72 95.92 217.64 83.71 225.86 C 78.91 228.89 75.45 234.20 75.36 239.97 C 74.57 247.55 80.40 253.69 85.99 257.92 C 94.92 264.16 105.63 266.99 115.86 270.33 C 138.22 277.45 161.37 282.85 182.19 294.03 C 197.75 301.98 211.40 314.72 218.12 331.07 C 225.84 350.49 225.58 372.98 217.27 392.17 C 210.38 408.47 196.92 421.27 181.52 429.59 C 164.86 438.71 145.95 442.82 127.13 444.13 C 88.61 446.27 50.45 435.83 15.50 420.30 C 10.10 417.84 4.44 414.92 1.18 409.75 C 0.62 404.46 0.98 398.95 3.35 394.09 C 6.26 387.29 10.06 380.92 13.46 374.36 C 16.25 369.45 20.01 364.06 25.92 362.89 C 32.49 363.00 38.55 365.94 44.56 368.29 C 61.81 374.98 79.59 380.65 97.95 383.32 C 110.58 385.10 123.82 385.75 136.11 381.73 C 143.61 379.17 151.22 374.15 153.55 366.16 C 155.48 360.10 153.09 353.49 148.97 348.92 C 144.51 344.01 138.32 341.25 132.45 338.43 C 117.72 332.06 102.02 328.43 86.80 323.49 C 66.23 316.85 45.09 309.74 28.20 295.76 C 16.53 286.26 8.12 272.81 5.06 258.05 C 0.81 238.35 4.25 216.97 14.83 199.78 C 23.29 186.43 35.71 175.68 49.96 168.90 C 64.26 161.63 80.25 158.42 96.12 156.98 Z" />
<path fill="#40464d" d=" M 375.95 186.92 C 412.41 162.63 457.84 152.15 501.24 158.05 C 517.85 160.04 534.25 164.79 548.88 173.01 C 566.53 182.80 581.26 198.10 589.57 216.57 C 595.24 228.96 598.55 242.42 599.59 255.99 C 599.58 262.68 600.40 269.34 600.24 276.04 C 600.48 325.37 600.24 374.71 600.35 424.04 C 600.38 429.34 599.01 435.23 594.59 438.60 C 591.43 441.39 586.97 441.46 582.99 441.52 C 570.69 441.49 558.39 441.57 546.09 441.48 C 539.91 441.56 534.09 437.00 532.76 430.96 C 531.40 424.22 532.86 417.38 532.88 410.60 C 523.74 419.13 513.79 426.95 502.57 432.57 C 485.26 441.67 465.40 445.27 445.96 444.48 C 427.99 443.29 409.82 439.30 394.21 429.99 C 379.55 421.55 367.82 408.15 361.63 392.38 C 354.27 374.22 353.40 353.55 359.14 334.82 C 364.92 314.96 379.21 298.20 396.87 287.76 C 414.50 277.32 434.96 272.37 455.29 271.29 C 477.52 269.61 500.00 272.59 521.31 279.01 C 524.74 279.98 528.05 281.44 531.60 281.97 C 531.47 269.07 533.23 255.11 526.46 243.44 C 518.32 229.09 501.96 221.68 486.17 219.59 C 464.96 216.32 443.15 220.83 423.83 229.75 C 416.97 232.65 410.81 236.99 403.86 239.69 C 400.62 240.88 396.67 241.12 393.73 239.05 C 388.34 235.56 384.81 230.03 381.17 224.89 C 375.68 216.78 369.84 208.49 367.68 198.77 C 367.50 193.54 371.93 189.59 375.95 186.92 Z" />
<path fill="#e01765" d=" M 655.42 184.54 C 686.17 165.33 722.68 155.24 758.95 156.54 C 773.12 156.99 787.32 158.83 800.91 162.98 C 817.81 168.09 834.12 176.50 846.49 189.30 C 862.81 205.58 873.04 227.91 874.49 250.93 C 874.62 310.97 874.56 371.00 874.59 431.04 C 874.91 435.15 871.73 438.51 868.27 440.19 C 865.05 441.66 861.43 441.40 858.00 441.44 C 846.00 441.51 834.00 441.56 822.00 441.48 C 815.67 441.38 808.97 436.61 808.70 429.91 C 808.25 423.59 808.69 417.25 808.57 410.93 C 806.71 411.89 805.37 413.51 803.91 414.94 C 789.45 428.35 771.39 437.84 752.10 442.02 C 735.64 445.96 718.44 444.89 701.94 441.81 C 683.82 438.25 666.26 430.14 653.22 416.86 C 626.83 389.10 624.04 342.41 646.53 311.50 C 657.82 295.65 674.89 284.66 693.13 278.44 C 725.69 267.84 761.36 268.65 794.10 278.08 C 798.51 279.30 802.81 280.93 807.25 282.11 C 807.30 270.87 808.77 259.10 804.73 248.34 C 799.53 235.34 787.38 225.95 774.06 222.33 C 749.32 214.97 722.29 219.06 699.28 230.09 C 691.67 233.23 684.98 238.52 676.89 240.46 C 670.51 241.73 665.57 236.42 662.11 231.83 C 655.67 222.74 648.69 213.74 644.84 203.17 C 643.78 200.19 643.12 196.76 644.81 193.86 C 647.11 189.60 651.46 187.06 655.42 184.54 Z" />
<path fill="#ffffff" d=" M 448.54 325.33 C 462.42 320.22 477.52 318.65 492.21 320.21 C 505.51 321.32 518.48 324.66 531.35 328.04 C 531.57 335.34 532.19 342.69 531.37 349.98 C 530.89 354.93 527.44 358.74 524.48 362.45 C 512.49 376.71 495.23 386.00 477.07 389.62 C 460.81 393.01 441.84 391.65 429.06 379.94 C 421.93 372.39 418.74 360.89 422.14 350.92 C 426.03 338.68 436.85 329.79 448.54 325.33 Z" />
<path fill="#ffffff" d=" M 735.27 322.11 C 759.32 316.57 784.24 321.22 807.37 328.52 C 807.17 335.96 808.05 343.43 807.19 350.85 C 806.79 354.79 804.10 357.87 801.86 360.93 C 791.52 374.17 776.37 382.88 760.48 387.72 C 747.01 391.69 732.27 392.93 718.83 388.20 C 709.08 385.08 700.57 377.26 697.93 367.21 C 696.33 359.71 696.90 351.53 700.78 344.78 C 707.58 331.98 721.69 325.20 735.27 322.11 Z" />
<path fill="#ffffff" d=" M 1754.65 344.86 C 1770.76 341.02 1788.18 352.95 1791.39 368.97 C 1792.12 374.93 1792.14 381.25 1789.58 386.82 C 1784.41 399.26 1771.67 408.56 1758.04 408.49 C 1740.08 407.20 1725.00 388.35 1728.78 370.47 C 1731.74 357.98 1742.42 348.14 1754.65 344.86 Z" />
</svg>
